<mxfile host="app.diagrams.net" modified="2023-06-10T18:09:23.561Z" agent="Mozilla/5.0 (Windows NT 10.0; Win64; x64) AppleWebKit/537.36 (KHTML, like Gecko) Chrome/114.0.0.0 Safari/537.36" version="21.3.8" etag="cAVVXEbNc1lljneqJ7IU" type="github">
  <diagram name="PÃ¡gina-1" id="VY78wZmnCNjxPbvKEwIq">
    <mxGraphModel>
      <root>
        <mxCell id="0" />
        <mxCell id="1" parent="0" />
      </root>
    </mxGraphModel>
  </diagram>
</mxfile>
